<svg version="1.1" id="Layer_1" xmlns="http://www.w3.org/2000/svg" xmlns:xlink="http://www.w3.org/1999/xlink" x="0px" y="0px"
	 width="100%" viewBox="0 0 500 500" enable-background="new 0 0 500 500" xml:space="preserve">
<path fill="#2F2E2E" opacity="1.000000" stroke="none" 
	d="
M264.000000,501.000000 
	C176.000015,501.000000 88.500038,501.000000 1.000047,501.000000 
	C1.000031,334.333405 1.000031,167.666794 1.000016,1.000136 
	C167.666565,1.000091 334.333130,1.000091 500.999756,1.000046 
	C500.999847,167.666519 500.999847,334.333038 500.999939,500.999786 
	C422.166656,501.000000 343.333344,501.000000 264.000000,501.000000 
M347.123596,272.364777 
	C347.703217,270.797638 348.282867,269.230469 349.563873,267.250671 
	C372.597015,260.814178 386.928711,243.755203 389.247192,220.067291 
	C389.537445,217.101868 389.341309,213.865250 390.489197,211.244202 
	C397.228088,195.856903 394.832184,181.400391 386.890259,167.265854 
	C385.876068,165.460846 385.316833,163.283066 385.021851,161.210373 
	C383.305084,149.146423 378.775879,138.518448 369.868103,129.926346 
	C368.245361,128.361115 366.900391,126.386024 365.836945,124.382645 
	C359.103210,111.697281 349.250397,102.470688 336.004700,96.844009 
	C334.373169,96.150948 332.720764,95.162918 331.499878,93.902855 
	C323.221588,85.359093 313.021606,80.325645 301.590210,77.860611 
	C294.461395,76.323372 287.166046,75.531754 279.927216,74.538055 
	C269.733368,73.138718 259.554718,71.145584 249.312302,70.687500 
	C230.047409,69.825890 211.792480,75.673759 193.637238,81.104004 
	C152.787125,93.322334 124.393593,119.030350 110.624138,159.832794 
	C102.986084,182.466324 105.360054,203.986557 120.348076,223.050568 
	C129.815445,235.092606 143.431183,240.736649 158.022842,243.966217 
	C161.903473,244.825104 164.215561,246.490723 166.073044,250.159348 
	C175.794296,269.359070 193.203323,278.261047 213.727936,274.949219 
	C217.493164,274.341644 221.241440,273.628967 225.260162,273.592041 
	C228.309280,278.517090 232.695190,282.016663 238.314819,282.808777 
	C243.641983,283.559723 249.151367,283.017731 254.855988,283.702240 
	C263.038361,295.912384 275.633392,300.109497 289.169189,302.599792 
	C314.223694,307.209351 337.414429,295.244934 347.123596,272.364777 
M311.499969,426.077850 
	C331.960510,426.077850 352.421051,426.077850 373.273407,426.077850 
	C373.029907,424.187988 372.854858,422.829224 372.700165,421.628479 
	C291.156647,421.628479 210.085663,421.628479 128.866028,421.628479 
	C128.866028,423.207947 128.866028,424.461670 128.866028,426.077850 
	C189.574783,426.077850 250.037354,426.077850 311.499969,426.077850 
M168.022552,364.855591 
	C169.389542,364.855591 170.756531,364.855591 172.023224,364.855591 
	C172.023224,354.597626 172.023224,344.996521 172.023224,335.336273 
	C170.369232,335.336273 168.959839,335.336273 167.044266,335.336273 
	C167.044266,339.930511 167.044266,344.258270 167.044266,348.902863 
	C162.328262,344.909515 165.516052,335.722534 156.538147,334.871277 
	C156.538147,345.230408 156.538147,354.960907 156.538147,364.757019 
	C158.262604,364.757019 159.685181,364.757019 161.725403,364.757019 
	C161.725403,360.371521 161.725403,356.241089 161.725403,352.110626 
	C162.056229,352.076996 162.387054,352.043335 162.717880,352.009705 
	C164.263031,356.138519 165.808182,360.267334 168.022552,364.855591 
M328.468201,359.326782 
	C328.468201,356.919556 328.468201,354.512329 328.468201,352.105133 
	C330.704681,354.716705 331.919220,357.513672 332.834076,360.405487 
	C333.843933,363.597565 334.819000,366.494781 339.080658,364.464874 
	C339.080658,354.687134 339.080658,345.070923 339.080658,335.280151 
	C337.471222,335.280151 336.046875,335.280151 334.149292,335.280151 
	C334.149292,339.854218 334.149292,344.221436 334.149292,348.588623 
	C332.130920,345.908600 331.041840,343.057373 330.025330,340.180481 
	C328.943481,337.118622 328.379578,333.373260 323.480469,335.701538 
	C323.480469,345.392090 323.480469,354.981628 323.480469,364.795227 
	C325.153717,364.795227 326.587067,364.795227 328.468048,364.795227 
	C328.468048,363.177368 328.468048,361.707611 328.468201,359.326782 
M96.523232,349.607330 
	C96.447098,345.302460 98.035583,339.426025 95.850830,337.111877 
	C93.414307,334.531036 87.548561,335.187775 83.010162,334.406860 
	C83.010162,345.393494 83.010162,355.099884 83.010162,365.009125 
	C86.366096,365.009125 89.427521,365.410187 92.308304,364.862030 
	C94.099403,364.521149 96.873489,362.882233 97.017387,361.583405 
	C97.419136,357.957336 96.680779,354.204926 96.523232,349.607330 
M108.292839,355.225830 
	C109.494736,357.212799 111.296768,359.068726 111.765640,361.215790 
	C112.581970,364.953796 114.288353,365.853394 117.347717,364.630585 
	C116.956902,360.962219 115.238434,356.891510 116.440918,354.062256 
	C122.095306,340.758453 118.413918,334.568817 104.329628,335.090027 
	C103.884315,335.106506 103.448067,335.367981 102.942436,335.537018 
	C102.942436,345.321503 102.942436,355.023682 102.942436,365.030884 
	C104.664932,364.918823 106.064682,364.827759 107.883766,364.709412 
	C107.883766,361.590576 107.883766,358.794220 108.292839,355.225830 
M216.138840,357.615784 
	C216.138840,355.396484 216.138840,353.177155 216.138840,350.237732 
	C224.832474,364.742645 224.832474,364.742645 226.822968,364.339081 
	C226.822968,354.740631 226.822968,345.139679 226.822968,335.303894 
	C225.217728,335.303894 223.832001,335.303894 221.843689,335.303894 
	C221.843689,340.098724 221.843689,344.704407 221.843689,349.392303 
	C217.159103,345.256744 220.416901,336.064941 211.335876,334.708557 
	C211.335876,345.216797 211.335876,354.948334 211.335876,364.730408 
	C213.022446,364.730408 214.417282,364.730408 216.138824,364.730408 
	C216.138824,362.486877 216.138824,360.515900 216.138840,357.615784 
M307.821991,356.289795 
	C307.821991,351.022186 307.821991,345.754578 307.821991,340.302277 
	C309.850677,340.302277 311.260590,340.302277 312.835571,340.302277 
	C313.141785,341.916229 313.409973,343.329956 313.730652,345.020081 
	C315.274750,344.922729 316.657776,344.835571 318.254303,344.734924 
	C318.254303,343.527466 318.265778,342.709473 318.252441,341.891876 
	C318.162018,336.354218 316.844147,335.112885 310.996735,335.046753 
	C304.089142,334.968628 302.746246,335.998962 302.664490,341.801483 
	C302.582581,347.613251 302.341431,353.453888 302.833344,359.225372 
	C303.001526,361.198853 304.813843,364.153412 306.499146,364.686493 
	C314.762878,367.300415 318.248383,364.450989 318.257629,355.820404 
	C318.260071,353.546021 318.257996,351.271606 318.257996,348.856018 
	C315.616577,348.856018 313.499725,348.856018 310.633545,348.856018 
	C311.686310,352.558258 312.641449,355.917267 313.730469,359.747040 
	C310.529602,359.830719 307.807983,361.348663 307.821991,356.289795 
M282.626709,342.068542 
	C282.627563,347.563324 282.550629,353.059540 282.651367,358.552490 
	C282.750336,363.949615 283.970245,364.987854 289.737854,365.031921 
	C295.905640,365.079041 297.476868,363.944458 297.625763,358.747131 
	C297.787781,353.090454 297.650085,347.425568 297.669800,341.764374 
	C297.684052,337.676483 296.220490,335.141632 291.620880,334.995636 
	C284.819153,334.779694 283.413483,335.615845 282.626709,342.068542 
M201.299438,403.076538 
	C201.930847,398.801910 203.122513,394.492584 202.860901,390.273315 
	C202.779739,388.964386 198.755249,387.897247 196.531998,386.727234 
	C196.238968,386.572968 195.738388,386.543701 195.644196,386.323700 
	C194.896240,384.576630 194.032532,382.836243 193.658905,381.001282 
	C193.563049,380.530518 195.086472,379.730072 195.865982,379.081085 
	C196.650131,380.411987 197.427719,381.746796 198.223816,383.070496 
	C198.388168,383.343781 198.621384,383.575653 199.014420,384.065216 
	C200.248657,383.975708 201.646164,383.874359 204.161758,383.691925 
	C203.082458,380.412811 202.891815,376.173523 201.171738,375.418488 
	C198.182861,374.106476 193.684494,373.778595 190.840652,375.152557 
	C186.312302,377.340485 188.771729,382.571442 188.259232,386.505432 
	C187.779434,390.188385 190.866821,390.434357 193.099136,390.892578 
	C197.626022,391.821777 199.304871,394.064575 197.645859,398.498047 
	C194.031677,398.840118 194.031677,398.840118 192.636475,393.981964 
	C191.301544,394.116577 189.912231,394.256683 188.604706,394.388550 
	C187.832870,402.558716 189.230362,404.169891 196.665695,404.002502 
	C197.974060,403.973022 199.276550,403.682709 201.299438,403.076538 
M232.045349,360.333130 
	C232.128494,361.775696 232.211639,363.218262 232.314987,365.011383 
	C235.246017,365.011383 237.877106,364.916016 240.498810,365.032379 
	C245.136993,365.238251 247.250046,363.140198 247.071854,358.478424 
	C246.932312,354.827698 247.045822,351.167358 247.045853,347.511292 
	C247.045975,334.818970 246.586975,334.382202 233.885712,335.087921 
	C233.422958,335.113647 232.971054,335.334381 232.045319,335.597443 
	C232.045319,343.499298 232.045319,351.431030 232.045349,360.333130 
M223.258270,387.567352 
	C223.251953,384.907990 223.234909,382.248566 223.241806,379.589233 
	C223.252380,375.517822 220.925842,374.024139 217.188660,374.047394 
	C213.373611,374.071106 208.791534,373.382202 208.448593,378.875885 
	C208.025040,385.660583 208.024796,392.513092 208.457260,399.297028 
	C208.811798,404.858124 213.463257,403.941803 217.231277,404.028961 
	C221.044296,404.117188 223.253006,402.542053 223.242615,398.497314 
	C223.234055,395.173126 223.252045,391.848877 223.258270,387.567352 
M261.839050,404.024597 
	C265.615875,404.024597 269.392670,404.024597 273.565216,404.024597 
	C273.446869,402.037964 273.363983,400.647003 273.259430,398.892029 
	C269.917664,398.892029 266.982727,398.892029 264.065735,398.892029 
	C264.065735,396.275299 264.065735,394.060791 264.065735,391.758850 
	C266.542603,391.646515 268.659271,391.550537 270.971100,391.445709 
	C270.971100,389.736237 270.971100,388.338623 270.971100,386.816284 
	C268.474518,386.611176 266.241577,386.427704 263.933960,386.238098 
	C263.933960,383.732697 263.933960,381.639496 263.933960,378.961639 
	C267.206573,378.961639 270.257477,378.961639 273.722382,378.961639 
	C273.484222,376.942810 273.320435,375.554291 273.181610,374.377441 
	C268.126770,374.377441 263.552582,374.377441 258.646606,374.377441 
	C258.646606,383.688080 258.588806,392.669312 258.745483,401.646820 
	C258.759521,402.450897 260.163116,403.230713 261.839050,404.024597 
M404.634583,353.464386 
	C404.634583,357.234497 404.634583,361.004608 404.634583,364.783875 
	C409.868652,364.783875 414.470428,364.783875 419.260498,364.783875 
	C419.260498,363.151306 419.260498,361.761871 419.260498,359.978394 
	C416.008789,359.978394 413.079071,359.978394 410.009857,359.978394 
	C410.009857,357.353699 410.009857,355.131592 410.009857,352.807617 
	C412.431244,352.673828 414.550903,352.556702 416.826324,352.430969 
	C416.826324,350.714233 416.826324,349.218048 416.826324,347.756592 
	C414.301178,347.586243 412.200775,347.444519 410.071960,347.300873 
	C410.071960,344.733704 410.071960,342.525299 410.071960,339.908386 
	C413.359955,339.908386 416.279907,339.908386 419.593475,339.908386 
	C419.456848,338.066284 419.353668,336.674988 419.251953,335.303406 
	C414.231049,335.303406 409.646088,335.303406 404.634613,335.303406 
	C404.634613,341.196991 404.634613,346.837250 404.634583,353.464386 
M122.905930,362.748840 
	C124.131859,363.705811 125.357780,364.662811 127.079414,366.006775 
	C127.875610,362.833008 128.311325,361.096161 128.753830,359.332275 
	C131.005585,359.332275 133.066559,359.332275 135.174881,359.332275 
	C135.674225,361.337158 136.103485,363.060669 136.588531,365.008148 
	C138.259369,364.919373 139.665894,364.844666 141.488068,364.747864 
	C139.295074,354.636963 137.193146,344.945862 135.079666,335.201508 
	C132.850983,335.201508 131.052185,335.201508 128.850922,335.201508 
	C126.894424,344.161835 124.950294,353.065491 122.905930,362.748840 
M195.726501,359.025360 
	C197.178741,359.089355 198.630981,359.153381 200.105286,359.218323 
	C200.624573,361.230194 201.070511,362.957886 201.534515,364.755554 
	C203.140671,364.755554 204.549271,364.755554 206.490997,364.755554 
	C204.283264,354.615875 202.154419,344.838470 199.774246,333.906769 
	C197.086182,335.188751 193.938690,335.730286 193.610764,337.000000 
	C191.261169,346.097168 189.485077,355.342468 187.478119,364.769531 
	C189.496887,364.769531 190.909668,364.769531 191.886292,364.769531 
	C193.007843,362.614563 193.935410,360.832306 195.726501,359.025360 
M236.263916,379.078247 
	C237.271179,380.510620 238.278458,381.942993 239.586884,383.803619 
	C240.217758,383.803619 241.611877,383.803619 243.277649,383.803619 
	C243.277649,382.200378 243.277679,380.886902 243.277618,379.573456 
	C243.277405,375.505676 240.930939,374.020355 237.202377,374.041016 
	C233.385330,374.062225 228.796555,373.384155 228.444214,378.860657 
	C228.007751,385.644653 228.063660,392.498108 228.544846,399.276276 
	C228.662140,400.928589 231.213104,403.634644 232.744339,403.705322 
	C235.955582,403.853485 239.698074,403.285217 242.294693,401.589996 
	C243.678726,400.686401 243.128677,396.820251 243.470245,394.145081 
	C241.440125,394.145081 240.143097,394.145081 238.693924,394.145081 
	C238.426758,395.714600 238.183594,397.143127 237.947968,398.527466 
	C234.825714,399.690186 233.422852,398.837433 233.506683,395.539398 
	C233.616455,391.220093 233.404221,386.889526 233.616684,382.577911 
	C233.675232,381.389557 234.752686,380.251404 236.263916,379.078247 
M267.881805,358.158752 
	C267.881805,352.227234 267.881805,346.295746 267.881805,340.662140 
	C273.257446,338.568573 272.314087,342.898865 273.427551,345.761017 
	C275.088959,344.917542 277.444946,344.263580 277.440247,343.627075 
	C277.422729,341.255341 277.305298,337.425903 275.990936,336.819641 
	C273.073395,335.473785 269.355713,335.247314 266.077637,335.604706 
	C264.787659,335.745300 262.931763,338.611237 262.829773,340.325134 
	C262.445099,346.787781 262.633240,353.287384 262.691193,359.772430 
	C262.728058,363.898621 265.275726,365.094727 268.973969,365.049896 
	C272.857574,365.002808 276.995911,365.530884 277.598022,360.025513 
	C277.770416,358.449249 277.624420,356.838165 277.624420,355.154175 
	C275.710358,355.154175 274.417114,355.154175 273.099182,355.154175 
	C272.786438,356.744049 272.505981,358.169769 272.100922,360.229095 
	C270.607697,359.804138 269.326782,359.439575 267.881805,358.158752 
M398.475464,335.054565 
	C395.981598,334.615509 394.971802,335.727722 394.551910,338.182709 
	C393.711334,343.097137 392.553497,347.957306 391.526672,352.839874 
	C391.215576,352.804260 390.904480,352.768646 390.593384,352.733032 
	C389.390045,346.859131 388.186707,340.985229 386.936432,334.882263 
	C384.977783,335.119751 383.607025,335.285950 382.006073,335.480072 
	C383.961182,344.221497 386.017792,352.442047 387.563477,360.757568 
	C388.287048,364.650269 389.783264,365.999329 393.738129,364.493774 
	C395.744049,355.671997 397.793762,346.786743 399.741730,337.879181 
	C399.924652,337.042694 399.466095,336.065979 398.475464,335.054565 
M297.803558,379.747711 
	C300.002747,387.575165 302.201965,395.402588 304.554474,403.775665 
	C304.521545,403.775665 305.943756,403.775665 308.430878,403.775665 
	C305.306519,392.849548 311.342712,384.068390 314.695557,374.318298 
	C306.126373,372.948578 308.769623,381.309235 305.235565,383.982147 
	C301.573120,381.653412 304.187469,372.833008 295.651306,374.344940 
	C296.395325,376.285400 296.923279,377.662292 297.803558,379.747711 
M282.492706,380.800598 
	C282.492706,388.411163 282.492706,396.021729 282.492706,403.819824 
	C284.376099,403.819824 285.811951,403.819824 287.738892,403.819824 
	C287.738892,395.566711 287.738892,387.503662 287.738892,379.126984 
	C291.976135,379.457123 293.992706,378.282776 291.968048,374.307068 
	C287.202515,374.307068 282.629150,374.307068 277.927002,374.307068 
	C277.927002,375.990295 277.927002,377.399780 277.927002,378.519714 
	C279.632233,379.049622 280.989532,379.471405 282.492706,380.800598 
M365.306580,340.081909 
	C369.386108,340.363464 369.056580,338.115112 368.065826,335.234680 
	C363.395264,335.234680 358.815765,335.234680 353.935669,335.234680 
	C353.935669,336.765961 353.935669,338.174408 353.935669,339.795349 
	C355.420990,339.999939 356.815674,340.192047 358.692566,340.450562 
	C358.692566,348.708252 358.692566,356.739716 358.692566,365.086914 
	C360.636261,364.934479 362.029694,364.825195 363.752838,364.690063 
	C363.752838,362.377563 363.699860,360.405762 363.762695,358.437653 
	C363.956726,352.359192 364.194885,346.282166 365.306580,340.081909 
M349.485504,359.248627 
	C349.485504,351.311920 349.485504,343.375244 349.485504,335.281372 
	C347.587708,335.281372 346.166107,335.281372 344.493073,335.281372 
	C344.493073,345.237213 344.493073,354.948853 344.493073,364.814758 
	C346.200226,364.814758 347.637573,364.814758 349.485413,364.814758 
	C349.485413,363.126801 349.485413,361.654022 349.485504,359.248627 
M253.485535,380.699585 
	C253.485535,378.595032 253.485535,376.490509 253.485535,374.048492 
	C251.471359,374.144653 250.066818,374.211731 248.544434,374.284424 
	C248.544434,384.330902 248.544434,394.022858 248.544434,403.759521 
	C250.283768,403.759521 251.700409,403.759521 253.485474,403.759521 
	C253.485474,396.214417 253.485474,388.935150 253.485535,380.699585 
M260.330536,439.246674 
	C259.491180,438.398315 258.651855,437.549927 257.812531,436.701538 
	C257.282196,437.748260 256.378082,438.766022 256.294250,439.847382 
	C256.076233,442.658905 256.015381,445.517639 256.281494,448.320557 
	C256.493469,450.553345 257.279846,452.731598 257.811279,454.934082 
	C258.762146,452.936737 259.713013,450.939362 260.522156,449.239716 
	C261.657562,450.935394 263.146942,453.159637 264.636292,455.383881 
	C265.144562,455.122620 265.652832,454.861359 266.161102,454.600128 
	C266.161102,449.300446 266.219421,443.999359 266.089539,438.702881 
	C266.072693,438.017609 265.082947,437.356201 264.543884,436.683746 
	C264.029968,437.382782 263.173431,438.035858 263.072144,438.790314 
	C262.847656,440.462891 263.002197,442.186340 263.002197,443.889069 
	C262.728638,443.917053 262.455078,443.945038 262.181519,443.972992 
	C261.665894,442.617859 261.150299,441.262695 260.330536,439.246674 
M293.922394,444.560547 
	C293.922424,446.225464 293.763031,447.910004 293.965332,449.549988 
	C294.187561,451.351379 294.742889,453.111633 295.153076,454.889832 
	C295.855530,453.169556 296.540833,451.441742 297.283478,449.739014 
	C297.370728,449.539001 297.773315,449.476471 297.971252,449.379028 
	C299.168884,451.353912 300.363495,453.323853 302.127625,456.232971 
	C302.622589,451.255280 302.959625,448.088165 303.248566,444.916718 
	C303.976959,436.921661 302.369354,435.539612 293.922333,437.285217 
	C293.922333,439.331177 293.922333,441.469666 293.922394,444.560547 
M146.769867,335.267731 
	C146.769867,345.078796 146.769867,354.889862 146.769867,364.724976 
	C148.031403,364.724976 149.421661,364.724976 151.137085,364.724976 
	C151.137085,355.524994 151.059631,346.604523 151.182068,337.686798 
	C151.221146,334.841248 149.588638,334.933197 146.769867,335.267731 
M372.912354,346.522339 
	C372.912354,352.596741 372.912354,358.671173 372.912354,364.711121 
	C374.869720,364.711121 376.256744,364.711121 377.686584,364.711121 
	C377.686584,354.740082 377.686584,345.063019 377.686584,335.091583 
	C375.990936,335.170441 374.611969,335.234589 372.912354,335.313660 
	C372.912354,338.961151 372.912354,342.246552 372.912354,346.522339 
M271.307587,454.962494 
	C272.053406,453.112396 272.799255,451.262299 273.577881,449.330872 
	C278.308594,448.184967 280.891754,442.612549 278.125519,438.477203 
	C277.336243,437.297302 275.110077,436.764740 273.467590,436.570099 
	C272.187195,436.418335 269.615021,437.268921 269.620911,437.642365 
	C269.712158,443.411316 270.131500,449.175140 271.307587,454.962494 
M249.622452,437.213409 
	C248.238846,437.495148 245.800491,437.493195 245.636490,438.102966 
	C244.165146,443.573151 243.093842,449.150940 241.904938,454.697083 
	C244.635956,454.006927 246.207932,451.811462 247.853958,451.754486 
	C249.322708,451.703613 250.873260,454.015808 252.387726,455.285248 
	C252.770264,455.063049 253.152817,454.840851 253.535370,454.618652 
	C252.340530,449.044403 251.145691,443.470184 249.622452,437.213409 
M285.075439,450.840179 
	C285.017334,447.020264 285.052765,443.194977 284.832520,439.384430 
	C284.780182,438.478851 283.871582,437.622803 283.356842,436.743958 
	C282.771698,437.545502 281.714661,438.328094 281.681519,439.151825 
	C281.521515,443.133636 281.620605,447.126709 281.659760,451.115479 
	C281.689240,454.116608 283.407379,455.074158 286.201843,455.061340 
	C288.917175,455.048859 290.839630,454.264740 290.896637,451.236389 
	C290.974854,447.082367 291.014740,442.921844 290.838257,438.773987 
	C290.805115,437.994843 289.680542,437.262146 289.059601,436.507996 
	C288.655945,436.697601 288.252258,436.887177 287.848602,437.076782 
	C287.848602,440.857666 288.025208,444.651917 287.740265,448.411194 
	C287.655548,449.529480 286.274963,450.549530 285.075439,450.840179 
M234.853790,438.428680 
	C234.172302,439.684387 233.490799,440.940125 232.248810,443.228638 
	C232.119217,440.750427 232.206573,439.457214 231.922379,438.251617 
	C231.782700,437.659058 230.954620,437.228760 230.438080,436.725037 
	C229.942734,437.256409 229.027313,437.779694 229.016922,438.320374 
	C228.910858,443.834625 228.952057,449.351715 228.952057,454.868042 
	C229.597061,454.977448 230.242065,455.086853 230.887070,455.196259 
	C231.485107,453.264038 232.083130,451.331818 232.709244,449.308868 
	C236.436264,454.557251 236.436264,454.557251 239.235764,454.145020 
	C235.239822,448.668274 234.169846,443.026428 237.868774,436.639496 
	C236.957977,437.024933 236.047180,437.410370 234.853790,438.428680 
M215.378448,454.919464 
	C215.900162,453.879517 216.754547,452.879944 216.886383,451.792755 
	C217.477737,446.916077 215.137024,441.497894 220.923355,437.041412 
	C216.739304,437.041412 213.809921,437.041412 209.371796,437.041412 
	C215.366898,441.065155 213.440628,446.010223 213.794937,450.457275 
	C213.910400,451.906250 214.247574,453.337555 215.378448,454.919464 
M201.267426,437.029755 
	C200.378326,437.728973 198.760208,438.388733 198.719879,439.133881 
	C198.480042,443.564880 198.522049,448.018616 198.681259,452.457062 
	C198.711304,453.294464 199.695770,454.097595 200.239838,454.916534 
	C200.790665,454.096161 201.798798,453.285858 201.817169,452.453705 
	C201.926117,447.521942 201.805542,442.585114 201.267426,437.029755 
M207.981827,453.075165 
	C208.099457,438.206482 208.099457,438.206482 204.984894,436.709259 
	C204.984894,442.413940 204.939499,447.805237 205.108368,453.189819 
	C205.117569,453.483337 206.915634,453.720734 207.981827,453.075165 
z"/>
<path fill="#FFA382" opacity="1.000000" stroke="none" 
	d="
M224.997543,272.964813 
	C221.241440,273.628967 217.493164,274.341644 213.727936,274.949219 
	C193.203323,278.261047 175.794296,269.359070 166.073044,250.159348 
	C164.215561,246.490723 161.903473,244.825104 158.022842,243.966217 
	C143.431183,240.736649 129.815445,235.092606 120.348076,223.050568 
	C105.360054,203.986557 102.986084,182.466324 110.624138,159.832794 
	C124.393593,119.030350 152.787125,93.322334 193.637238,81.104004 
	C211.792480,75.673759 230.047409,69.825890 249.312302,70.687500 
	C259.554718,71.145584 269.733368,73.138718 279.927216,74.538055 
	C287.166046,75.531754 294.461395,76.323372 301.590210,77.860611 
	C313.021606,80.325645 323.221588,85.359093 331.499878,93.902855 
	C332.720764,95.162918 334.373169,96.150948 336.004700,96.844009 
	C349.250397,102.470688 359.103210,111.697281 365.836945,124.382645 
	C366.900391,126.386024 368.245361,128.361115 369.868103,129.926346 
	C378.775879,138.518448 383.305084,149.146423 385.021851,161.210373 
	C385.316833,163.283066 385.876068,165.460846 386.890259,167.265854 
	C394.832184,181.400391 397.228088,195.856903 390.489197,211.244202 
	C389.341309,213.865250 389.537445,217.101868 389.247192,220.067291 
	C386.928711,243.755203 372.597015,260.814178 348.787323,267.330933 
	C344.870728,267.106171 341.670074,267.090454 338.600922,266.447235 
	C323.330444,263.246704 308.138611,259.652008 292.821014,256.706055 
	C287.914276,255.762375 282.364166,255.173508 277.698334,256.498901 
	C260.000366,261.526276 242.544159,267.404694 224.997543,272.964813 
M280.489380,184.007370 
	C282.486267,184.068634 284.522980,183.896210 286.473572,184.228928 
	C299.638458,186.474518 311.980469,183.992004 323.548798,177.632889 
	C326.548737,175.983795 329.467316,173.768372 331.598114,171.143341 
	C332.577698,169.936554 331.565491,167.113037 331.456482,165.022629 
	C329.534180,165.266617 327.382660,165.047638 325.741821,165.860077 
	C323.095215,167.170547 320.879242,169.319901 318.315887,170.834900 
	C308.972839,176.356720 298.602539,176.738464 288.261932,175.939285 
	C272.429108,174.715622 258.087097,178.865799 244.042755,185.784515 
	C238.849564,188.342834 232.611496,188.965897 226.757248,189.873566 
	C225.179291,190.118225 222.539536,188.628387 221.612381,187.160736 
	C212.939285,173.431717 211.097305,158.773575 216.258881,143.275406 
	C217.693268,138.968506 219.206406,135.159821 224.889633,135.425934 
	C226.399292,135.496643 228.433197,134.692535 229.394073,133.574646 
	C230.622406,132.145599 231.007431,129.991699 231.755890,128.150177 
	C230.071167,127.510712 227.982025,125.892303 226.768600,126.393616 
	C219.857483,129.248871 214.594620,127.060699 209.547577,122.261086 
	C208.520782,121.284615 205.984985,121.894913 204.144821,121.773727 
	C204.156387,123.733551 203.481216,126.089638 204.332520,127.564926 
	C205.789642,130.090149 208.202194,132.064087 210.669693,134.769699 
	C202.215271,153.531952 203.517471,172.690125 214.218353,191.603912 
	C211.918671,191.806747 210.777740,191.912582 209.635910,192.007294 
	C195.178970,193.206375 182.471298,198.248459 172.496445,209.122391 
	C167.214127,214.880829 166.567123,215.100632 159.497406,211.793396 
	C157.839035,211.017609 156.133560,210.276627 154.623566,209.261169 
	C148.673813,205.260040 144.466644,200.004364 141.744873,193.206497 
	C139.793793,188.333466 143.413528,185.897949 144.644440,182.348846 
	C145.202408,180.740082 144.095840,178.554016 143.744385,176.629837 
	C141.800156,176.997162 138.820541,176.706680 138.095154,177.848404 
	C135.306885,182.237061 131.917480,182.628586 127.341919,181.434143 
	C126.067596,181.101486 123.355766,182.649002 122.879791,183.922943 
	C122.420486,185.152298 123.705505,187.374847 124.780632,188.714569 
	C125.483521,189.590424 127.147629,189.877472 128.434219,190.065536 
	C131.416748,190.501511 133.052567,192.025696 133.878204,194.986969 
	C137.089691,206.505402 144.743683,214.171356 155.340988,219.212479 
	C162.269394,222.508316 162.051056,222.524963 161.299088,230.386154 
	C161.130493,232.148849 162.469727,235.144958 163.887039,235.742966 
	C166.818680,236.979935 168.444641,235.082260 169.387405,231.888885 
	C170.594879,227.798843 172.226425,223.660385 174.534149,220.099411 
	C183.582932,206.136505 197.485321,201.073318 213.291611,200.024567 
	C227.963379,199.051071 242.126938,196.959351 255.625381,190.066376 
	C262.766693,186.419678 271.516785,185.923523 280.489380,184.007370 
M320.955719,201.324417 
	C324.379089,207.966721 323.832306,209.867599 316.852448,213.510635 
	C314.072479,214.961609 311.049835,216.662750 308.052917,216.843353 
	C300.316528,217.309525 292.524384,216.770172 284.771362,217.069092 
	C280.049255,217.251144 276.800201,216.590805 276.018433,210.999710 
	C275.635986,208.264282 273.787567,205.275864 270.146149,206.579910 
	C266.696808,207.815186 266.761841,210.603592 268.241516,213.593674 
	C269.642303,216.424362 269.137390,218.506149 265.969635,220.047287 
	C262.090607,221.934448 258.484070,224.375107 254.716965,226.500641 
	C249.967285,229.180527 245.133774,230.625687 239.456970,229.278458 
	C235.143356,228.254730 230.542816,228.490997 226.097946,227.940659 
	C224.604706,227.755753 222.755936,227.266281 221.840057,226.233093 
	C219.712524,223.833115 218.277100,219.367386 214.386765,221.843124 
	C212.643005,222.952820 212.917892,227.234634 212.276733,230.076981 
	C209.787445,233.303070 205.754440,235.992279 202.432922,239.379227 
	C201.084183,240.754547 201.283768,243.648254 200.778854,245.851074 
	C203.183136,245.718231 206.626038,246.567032 207.826767,245.296631 
	C217.120758,235.463348 228.538269,235.854156 240.298935,237.993393 
	C242.042664,238.310593 244.030746,240.296478 244.839096,242.012741 
	C245.952011,244.375626 246.474548,247.000275 249.763580,246.438065 
	C252.971481,245.889725 253.052597,243.282471 253.105103,240.619629 
	C253.135345,239.085510 253.349823,236.729065 254.309799,236.173065 
	C260.615662,232.520767 266.820831,227.884171 273.696045,226.250839 
	C280.722443,224.581573 288.482178,226.147079 295.913788,225.979843 
	C300.356018,225.879868 303.873474,225.896484 303.328979,232.069397 
	C303.203278,233.494736 305.761536,235.156845 307.084717,236.710007 
	C308.578918,235.377533 310.337616,234.232574 311.466095,232.640839 
	C312.122681,231.714752 312.140167,229.965256 311.796600,228.773163 
	C310.931976,225.772812 312.445557,224.987030 314.846039,223.729660 
	C319.519714,221.281601 323.728699,217.961655 328.299713,215.293335 
	C329.734680,214.455688 331.751129,214.141678 333.433258,214.302277 
	C336.535980,214.598511 339.632751,216.025818 342.645050,215.803513 
	C344.478394,215.668228 346.149017,213.328278 347.892731,211.978638 
	C346.286743,210.655014 344.806458,209.112717 343.027435,208.090225 
	C341.969391,207.482086 340.375763,207.896317 339.135529,207.499207 
	C332.942566,205.516312 328.823578,201.665237 327.878296,194.894867 
	C327.469910,191.970001 325.955627,189.574875 322.582092,190.413025 
	C319.406311,191.202087 318.687927,193.694687 319.706970,196.736298 
	C320.128357,197.994095 320.385284,199.307007 320.955719,201.324417 
M251.025040,151.400940 
	C250.428207,153.370453 249.831375,155.339966 249.234558,157.309479 
	C251.158401,157.662552 253.701157,158.972519 254.896545,158.199341 
	C259.517670,155.210419 263.438232,155.577698 267.826202,158.623978 
	C268.943756,159.399841 272.105316,158.960159 272.941193,157.941376 
	C273.829742,156.858398 273.563721,154.208786 272.880890,152.645584 
	C272.301208,151.318542 270.293762,150.680069 269.138184,149.518051 
	C268.297913,148.673126 267.065765,147.259460 267.290955,146.461227 
	C269.640625,138.132629 266.300568,130.710571 263.897186,123.132713 
	C261.266754,114.839005 260.112946,106.708374 264.754395,98.544556 
	C265.470764,97.284576 263.813629,94.675163 263.254150,92.689796 
	C261.328278,93.458946 258.245789,93.743729 257.684387,95.084312 
	C255.664948,99.906273 253.050980,105.169411 253.340714,110.108688 
	C253.790695,117.779488 256.084869,125.422707 258.235931,132.893738 
	C261.263794,143.410049 260.573761,145.907898 251.025040,151.400940 
M167.966415,133.869080 
	C168.056961,130.602127 167.305832,127.100395 163.551956,127.587669 
	C161.845215,127.809212 160.521118,131.559341 159.202148,133.813431 
	C158.833588,134.443283 158.949905,135.474380 159.101196,136.272629 
	C160.519150,143.754242 161.347946,151.431046 163.646500,158.636932 
	C165.633743,164.866943 169.360626,170.373901 163.482056,176.556732 
	C161.690567,178.440948 161.534073,181.897415 164.597977,183.459717 
	C167.973145,185.180740 169.744659,182.874268 171.024765,179.983978 
	C173.557129,174.266342 178.002289,172.037170 184.213043,172.390366 
	C185.696854,172.474762 188.491608,170.817154 188.553177,169.828140 
	C188.657104,168.158875 187.476395,165.570358 186.075424,164.852386 
	C184.188126,163.885208 181.393692,163.694366 179.323761,164.305527 
	C176.052017,165.271576 174.802307,163.922287 173.641357,161.336258 
	C169.845001,152.879852 167.425705,144.151627 167.966415,133.869080 
M305.077454,145.332825 
	C305.182953,136.193573 305.655579,135.501099 313.839020,132.492020 
	C313.994995,132.434662 314.210144,132.409653 314.290497,132.294647 
	C315.409485,130.693008 316.509766,129.078262 317.614594,127.466713 
	C315.792755,126.448959 313.751465,124.313385 312.189667,124.620041 
	C307.217529,125.596321 303.531097,124.573570 300.197723,120.661072 
	C299.192566,119.481308 296.616669,119.639832 294.760284,119.185318 
	C294.338440,121.107635 293.414520,123.096153 293.656464,124.930931 
	C293.843842,126.352257 295.721191,127.469093 296.425842,128.925247 
	C297.244385,130.616806 298.366302,132.686646 298.032745,134.322311 
	C296.328644,142.678360 296.430481,150.899643 299.625031,158.795471 
	C300.220978,160.268494 303.112122,160.812897 304.944031,161.785873 
	C305.719116,160.000076 307.214996,158.173508 307.116730,156.437149 
	C306.922302,153.000763 305.846924,149.614227 305.077454,145.332825 
M349.573059,136.779465 
	C347.800415,137.435944 346.027740,138.092407 344.255096,138.748886 
	C345.169952,140.831161 345.521027,143.606567 347.090912,144.883530 
	C357.485779,153.338760 361.118469,163.209229 357.707520,175.296982 
	C357.212219,177.052078 355.875153,178.755554 355.950073,180.437363 
	C356.038269,182.418106 357.240540,184.349228 357.959747,186.301865 
	C359.677216,185.485184 361.698608,184.992081 363.018555,183.752197 
	C364.128632,182.709412 364.536224,180.835480 365.059601,179.264450 
	C369.795349,165.047821 367.178864,148.244934 349.573059,136.779465 
M203.925247,92.007759 
	C195.120956,93.294975 187.980530,97.550217 182.304169,104.299240 
	C180.321320,106.656784 178.299713,109.633545 181.225555,112.194214 
	C183.964066,114.590927 186.481598,112.348061 188.403427,110.064087 
	C195.740982,101.343925 204.861603,98.260155 216.085938,100.629578 
	C217.716568,100.973793 219.842728,98.970474 221.739594,98.053444 
	C220.558655,96.340271 219.631073,93.455750 218.148911,93.135162 
	C213.829239,92.200844 209.287872,92.291595 203.925247,92.007759 
M292.083252,97.907112 
	C302.971405,97.136467 311.871552,100.956917 318.848572,109.369659 
	C320.636780,111.525871 323.154022,113.596779 325.409546,110.731506 
	C326.477264,109.375145 326.379669,105.717560 325.278351,104.259201 
	C317.326965,93.729721 306.344177,89.014709 293.303131,89.266754 
	C291.571655,89.300209 288.676239,91.075462 288.471649,92.381203 
	C288.218811,93.995132 290.215302,95.961479 292.083252,97.907112 
M363.985504,241.465195 
	C366.572693,236.334930 369.558716,231.350082 371.513367,225.989166 
	C372.130829,224.295761 370.550262,220.323212 368.988037,219.634827 
	C366.145599,218.382309 364.225189,220.898712 363.572388,223.831558 
	C361.670898,232.374268 356.814087,238.295731 348.698730,241.872543 
	C347.096130,242.578888 345.283600,245.892899 345.694916,247.438217 
	C346.533630,250.589432 349.755280,250.675095 352.292419,249.236328 
	C356.153625,247.046738 359.764771,244.416153 363.985504,241.465195 
z"/>
<path fill="#FE7847" opacity="1.000000" stroke="none" 
	d="
M346.741455,272.896118 
	C337.414429,295.244934 314.223694,307.209351 289.169189,302.599792 
	C275.633392,300.109497 263.038361,295.912384 254.976501,283.123505 
	C260.523834,279.044312 265.783081,275.242096 271.416321,272.113312 
	C280.133423,267.271637 289.255005,265.106445 299.555420,266.825287 
	C315.186523,269.433655 331.003448,270.928345 346.741455,272.896118 
z"/>
<path fill="#EB4103" opacity="1.000000" stroke="none" 
	d="
M346.932526,272.630432 
	C331.003448,270.928345 315.186523,269.433655 299.555420,266.825287 
	C289.255005,265.106445 280.133423,267.271637 271.416321,272.113312 
	C265.783081,275.242096 260.523834,279.044312 254.838837,282.794556 
	C249.151367,283.017731 243.641983,283.559723 238.314819,282.808777 
	C232.695190,282.016663 228.309280,278.517090 225.128845,273.278442 
	C242.544159,267.404694 260.000366,261.526276 277.698334,256.498901 
	C282.364166,255.173508 287.914276,255.762375 292.821014,256.706055 
	C308.138611,259.652008 323.330444,263.246704 338.600922,266.447235 
	C341.670074,267.090454 344.870728,267.106171 348.436646,267.537262 
	C348.282867,269.230469 347.703217,270.797638 346.932526,272.630432 
z"/>
<path fill="#EDEDED" opacity="1.000000" stroke="none" 
	d="
M310.999939,426.077850 
	C250.037354,426.077850 189.574783,426.077850 128.866028,426.077850 
	C128.866028,424.461670 128.866028,423.207947 128.866028,421.628479 
	C210.085663,421.628479 291.156647,421.628479 372.700165,421.628479 
	C372.854858,422.829224 373.029907,424.187988 373.273407,426.077850 
	C352.421051,426.077850 331.960510,426.077850 310.999939,426.077850 
z"/>
<path fill="#F3F3F3" opacity="1.000000" stroke="none" 
	d="
M167.687943,364.625854 
	C165.808182,360.267334 164.263031,356.138519 162.717880,352.009705 
	C162.387054,352.043335 162.056229,352.076996 161.725403,352.110626 
	C161.725403,356.241089 161.725403,360.371521 161.725403,364.757019 
	C159.685181,364.757019 158.262604,364.757019 156.538147,364.757019 
	C156.538147,354.960907 156.538147,345.230408 156.538147,334.871277 
	C165.516052,335.722534 162.328262,344.909515 167.044266,348.902863 
	C167.044266,344.258270 167.044266,339.930511 167.044266,335.336273 
	C168.959839,335.336273 170.369232,335.336273 172.023224,335.336273 
	C172.023224,344.996521 172.023224,354.597626 172.023224,364.855591 
	C170.756531,364.855591 169.389542,364.855591 167.687943,364.625854 
z"/>
<path fill="#F3F3F3" opacity="1.000000" stroke="none" 
	d="
M328.468140,359.782288 
	C328.468048,361.707611 328.468048,363.177368 328.468048,364.795227 
	C326.587067,364.795227 325.153717,364.795227 323.480469,364.795227 
	C323.480469,354.981628 323.480469,345.392090 323.480469,335.701538 
	C328.379578,333.373260 328.943481,337.118622 330.025330,340.180481 
	C331.041840,343.057373 332.130920,345.908600 334.149292,348.588623 
	C334.149292,344.221436 334.149292,339.854218 334.149292,335.280151 
	C336.046875,335.280151 337.471222,335.280151 339.080658,335.280151 
	C339.080658,345.070923 339.080658,354.687134 339.080658,364.464874 
	C334.819000,366.494781 333.843933,363.597565 332.834076,360.405487 
	C331.919220,357.513672 330.704681,354.716705 328.468201,352.105133 
	C328.468201,354.512329 328.468201,356.919556 328.468140,359.782288 
z"/>
<path fill="#F5F5F5" opacity="1.000000" stroke="none" 
	d="
M96.457855,350.054871 
	C96.680779,354.204926 97.419136,357.957336 97.017387,361.583405 
	C96.873489,362.882233 94.099403,364.521149 92.308304,364.862030 
	C89.427521,365.410187 86.366096,365.009125 83.010162,365.009125 
	C83.010162,355.099884 83.010162,345.393494 83.010162,334.406860 
	C87.548561,335.187775 93.414307,334.531036 95.850830,337.111877 
	C98.035583,339.426025 96.447098,345.302460 96.457855,350.054871 
M91.012222,347.646759 
	C91.479538,345.446838 92.127144,343.254333 92.218643,341.038879 
	C92.232277,340.708832 89.630188,340.270721 87.095985,339.564117 
	C88.969856,342.901978 85.242096,346.589020 91.012222,347.646759 
M91.869820,359.738739 
	C93.713890,353.397369 93.008781,352.223297 87.632256,353.383118 
	C89.370781,355.373138 84.573997,360.256287 91.869820,359.738739 
z"/>
<path fill="#F6F6F6" opacity="1.000000" stroke="none" 
	d="
M108.088303,355.611847 
	C107.883766,358.794220 107.883766,361.590576 107.883766,364.709412 
	C106.064682,364.827759 104.664932,364.918823 102.942436,365.030884 
	C102.942436,355.023682 102.942436,345.321503 102.942436,335.537018 
	C103.448067,335.367981 103.884315,335.106506 104.329628,335.090027 
	C118.413918,334.568817 122.095306,340.758453 116.440918,354.062256 
	C115.238434,356.891510 116.956902,360.962219 117.347717,364.630585 
	C114.288353,365.853394 112.581970,364.953796 111.765640,361.215790 
	C111.296768,359.068726 109.494736,357.212799 108.088303,355.611847 
M112.683487,341.018829 
	C111.148109,340.680328 109.612732,340.341827 107.971664,339.980011 
	C107.971664,343.724365 107.971664,346.634430 107.971664,349.669250 
	C111.610619,350.683105 113.426682,349.777039 112.965233,345.810791 
	C112.814697,344.516907 112.918915,343.193420 112.683487,341.018829 
z"/>
<path fill="#FAFAFA" opacity="1.000000" stroke="none" 
	d="
M216.138824,358.080322 
	C216.138824,360.515900 216.138824,362.486877 216.138824,364.730408 
	C214.417282,364.730408 213.022446,364.730408 211.335876,364.730408 
	C211.335876,354.948334 211.335876,345.216797 211.335876,334.708557 
	C220.416901,336.064941 217.159103,345.256744 221.843689,349.392303 
	C221.843689,344.704407 221.843689,340.098724 221.843689,335.303894 
	C223.832001,335.303894 225.217728,335.303894 226.822968,335.303894 
	C226.822968,345.139679 226.822968,354.740631 226.822968,364.339081 
	C224.832474,364.742645 224.832474,364.742645 216.138840,350.237732 
	C216.138840,353.177155 216.138840,355.396484 216.138824,358.080322 
z"/>
<path fill="#F5F5F5" opacity="1.000000" stroke="none" 
	d="
M307.823975,356.763977 
	C307.807983,361.348663 310.529602,359.830719 313.730469,359.747040 
	C312.641449,355.917267 311.686310,352.558258 310.633545,348.856018 
	C313.499725,348.856018 315.616577,348.856018 318.257996,348.856018 
	C318.257996,351.271606 318.260071,353.546021 318.257629,355.820404 
	C318.248383,364.450989 314.762878,367.300415 306.499146,364.686493 
	C304.813843,364.153412 303.001526,361.198853 302.833344,359.225372 
	C302.341431,353.453888 302.582581,347.613251 302.664490,341.801483 
	C302.746246,335.998962 304.089142,334.968628 310.996735,335.046753 
	C316.844147,335.112885 318.162018,336.354218 318.252441,341.891876 
	C318.265778,342.709473 318.254303,343.527466 318.254303,344.734924 
	C316.657776,344.835571 315.274750,344.922729 313.730652,345.020081 
	C313.409973,343.329956 313.141785,341.916229 312.835571,340.302277 
	C311.260590,340.302277 309.850677,340.302277 307.821991,340.302277 
	C307.821991,345.754578 307.821991,351.022186 307.823975,356.763977 
z"/>
<path fill="#F1F1F1" opacity="1.000000" stroke="none" 
	d="
M282.629639,341.629944 
	C283.413483,335.615845 284.819153,334.779694 291.620880,334.995636 
	C296.220490,335.141632 297.684052,337.676483 297.669800,341.764374 
	C297.650085,347.425568 297.787781,353.090454 297.625763,358.747131 
	C297.476868,363.944458 295.905640,365.079041 289.737854,365.031921 
	C283.970245,364.987854 282.750336,363.949615 282.651367,358.552490 
	C282.550629,353.059540 282.627563,347.563324 282.629639,341.629944 
M292.808929,353.338348 
	C292.808319,350.189789 292.674683,347.034180 292.841064,343.894470 
	C293.044495,340.055176 291.336212,339.352142 288.017151,340.498199 
	C288.017151,347.034607 288.017151,353.413696 288.017151,359.722778 
	C293.946655,361.274292 292.639008,357.183746 292.808929,353.338348 
z"/>
<path fill="#F5F5F5" opacity="1.000000" stroke="none" 
	d="
M200.940598,403.294678 
	C199.276550,403.682709 197.974060,403.973022 196.665695,404.002502 
	C189.230362,404.169891 187.832870,402.558716 188.604706,394.388550 
	C189.912231,394.256683 191.301544,394.116577 192.636475,393.981964 
	C194.031677,398.840118 194.031677,398.840118 197.645859,398.498047 
	C199.304871,394.064575 197.626022,391.821777 193.099136,390.892578 
	C190.866821,390.434357 187.779434,390.188385 188.259232,386.505432 
	C188.771729,382.571442 186.312302,377.340485 190.840652,375.152557 
	C193.684494,373.778595 198.182861,374.106476 201.171738,375.418488 
	C202.891815,376.173523 203.082458,380.412811 204.161758,383.691925 
	C201.646164,383.874359 200.248657,383.975708 199.014420,384.065216 
	C198.621384,383.575653 198.388168,383.343781 198.223816,383.070496 
	C197.427719,381.746796 196.650131,380.411987 195.865982,379.081085 
	C195.086472,379.730072 193.563049,380.530518 193.658905,381.001282 
	C194.032532,382.836243 194.896240,384.576630 195.644196,386.323700 
	C195.738388,386.543701 196.238968,386.572968 196.531998,386.727234 
	C198.755249,387.897247 202.779739,388.964386 202.860901,390.273315 
	C203.122513,394.492584 201.930847,398.801910 200.940598,403.294678 
z"/>
<path fill="#F9F9F9" opacity="1.000000" stroke="none" 
	d="
M232.045334,359.847931 
	C232.045319,351.431030 232.045319,343.499298 232.045319,335.597443 
	C232.971054,335.334381 233.422958,335.113647 233.885712,335.087921 
	C246.586975,334.382202 247.045975,334.818970 247.045853,347.511292 
	C247.045822,351.167358 246.932312,354.827698 247.071854,358.478424 
	C247.250046,363.140198 245.136993,365.238251 240.498810,365.032379 
	C237.877106,364.916016 235.246017,365.011383 232.314987,365.011383 
	C232.211639,363.218262 232.128494,361.775696 232.045334,359.847931 
M242.082153,356.260681 
	C242.082291,352.117706 242.138031,347.973755 242.066696,343.832001 
	C241.997467,339.812866 241.940186,339.813843 237.426392,340.697571 
	C237.426392,347.088165 237.426392,353.468811 237.426392,359.849457 
	C237.859848,360.159149 238.293320,360.468842 238.726776,360.778534 
	C239.844299,359.586884 240.961823,358.395233 242.082153,356.260681 
z"/>
<path fill="#F5F5F5" opacity="1.000000" stroke="none" 
	d="
M223.258270,388.046021 
	C223.252045,391.848877 223.234055,395.173126 223.242615,398.497314 
	C223.253006,402.542053 221.044296,404.117188 217.231277,404.028961 
	C213.463257,403.941803 208.811798,404.858124 208.457260,399.297028 
	C208.024796,392.513092 208.025040,385.660583 208.448593,378.875885 
	C208.791534,373.382202 213.373611,374.071106 217.188660,374.047394 
	C220.925842,374.024139 223.252380,375.517822 223.241806,379.589233 
	C223.234909,382.248566 223.251953,384.907990 223.258270,388.046021 
M213.194885,389.484436 
	C213.195206,391.305817 213.300552,393.134552 213.174316,394.947113 
	C212.899780,398.888672 214.509323,400.021790 218.193375,398.585358 
	C218.193375,392.080841 218.193375,385.711334 218.193375,379.360138 
	C214.390320,378.229187 212.866577,379.407928 213.170181,383.063812 
	C213.320404,384.872681 213.195404,386.704437 213.194885,389.484436 
z"/>
<path fill="#F4F4F4" opacity="1.000000" stroke="none" 
	d="
M261.380188,404.023193 
	C260.163116,403.230713 258.759521,402.450897 258.745483,401.646820 
	C258.588806,392.669312 258.646606,383.688080 258.646606,374.377441 
	C263.552582,374.377441 268.126770,374.377441 273.181610,374.377441 
	C273.320435,375.554291 273.484222,376.942810 273.722382,378.961639 
	C270.257477,378.961639 267.206573,378.961639 263.933960,378.961639 
	C263.933960,381.639496 263.933960,383.732697 263.933960,386.238098 
	C266.241577,386.427704 268.474518,386.611176 270.971100,386.816284 
	C270.971100,388.338623 270.971100,389.736237 270.971100,391.445709 
	C268.659271,391.550537 266.542603,391.646515 264.065735,391.758850 
	C264.065735,394.060791 264.065735,396.275299 264.065735,398.892029 
	C266.982727,398.892029 269.917664,398.892029 273.259430,398.892029 
	C273.363983,400.647003 273.446869,402.037964 273.565216,404.024597 
	C269.392670,404.024597 265.615875,404.024597 261.380188,404.023193 
z"/>
<path fill="#F4F4F4" opacity="1.000000" stroke="none" 
	d="
M404.634583,352.970947 
	C404.634613,346.837250 404.634613,341.196991 404.634613,335.303406 
	C409.646088,335.303406 414.231049,335.303406 419.251953,335.303406 
	C419.353668,336.674988 419.456848,338.066284 419.593475,339.908386 
	C416.279907,339.908386 413.359955,339.908386 410.071960,339.908386 
	C410.071960,342.525299 410.071960,344.733704 410.071960,347.300873 
	C412.200775,347.444519 414.301178,347.586243 416.826324,347.756592 
	C416.826324,349.218048 416.826324,350.714233 416.826324,352.430969 
	C414.550903,352.556702 412.431244,352.673828 410.009857,352.807617 
	C410.009857,355.131592 410.009857,357.353699 410.009857,359.978394 
	C413.079071,359.978394 416.008789,359.978394 419.260498,359.978394 
	C419.260498,361.761871 419.260498,363.151306 419.260498,364.783875 
	C414.470428,364.783875 409.868652,364.783875 404.634583,364.783875 
	C404.634583,361.004608 404.634583,357.234497 404.634583,352.970947 
z"/>
<path fill="#F6F6F6" opacity="1.000000" stroke="none" 
	d="
M122.956055,362.359009 
	C124.950294,353.065491 126.894424,344.161835 128.850922,335.201508 
	C131.052185,335.201508 132.850983,335.201508 135.079666,335.201508 
	C137.193146,344.945862 139.295074,354.636963 141.488068,364.747864 
	C139.665894,364.844666 138.259369,364.919373 136.588531,365.008148 
	C136.103485,363.060669 135.674225,361.337158 135.174881,359.332275 
	C133.066559,359.332275 131.005585,359.332275 128.753830,359.332275 
	C128.311325,361.096161 127.875610,362.833008 127.079414,366.006775 
	C125.357780,364.662811 124.131859,363.705811 122.956055,362.359009 
M133.750427,350.824615 
	C133.246750,348.680328 132.743073,346.536072 132.239395,344.391785 
	C131.929504,344.430573 131.619614,344.469391 131.309738,344.508179 
	C130.789413,347.789124 130.269089,351.070068 129.750763,354.338470 
	C132.889313,355.295685 134.603287,355.033142 133.750427,350.824615 
z"/>
<path fill="#F6F6F6" opacity="1.000000" stroke="none" 
	d="
M195.294739,359.037720 
	C193.935410,360.832306 193.007843,362.614563 191.886292,364.769531 
	C190.909668,364.769531 189.496887,364.769531 187.478119,364.769531 
	C189.485077,355.342468 191.261169,346.097168 193.610764,337.000000 
	C193.938690,335.730286 197.086182,335.188751 199.774246,333.906769 
	C202.154419,344.838470 204.283264,354.615875 206.490997,364.755554 
	C204.549271,364.755554 203.140671,364.755554 201.534515,364.755554 
	C201.070511,362.957886 200.624573,361.230194 200.105286,359.218323 
	C198.630981,359.153381 197.178741,359.089355 195.294739,359.037720 
M195.713318,348.364349 
	C195.371841,350.299652 195.030380,352.234985 194.586945,354.748169 
	C196.389816,354.650635 197.683533,354.580658 199.449631,354.485138 
	C198.613907,350.701874 197.921463,347.567322 197.229034,344.432739 
	C196.910294,344.497192 196.591537,344.561646 196.272797,344.626099 
	C196.132721,345.607544 195.992645,346.589020 195.713318,348.364349 
z"/>
<path fill="#F3F3F3" opacity="1.000000" stroke="none" 
	d="
M235.813263,379.084229 
	C234.752686,380.251404 233.675232,381.389557 233.616684,382.577911 
	C233.404221,386.889526 233.616455,391.220093 233.506683,395.539398 
	C233.422852,398.837433 234.825714,399.690186 237.947968,398.527466 
	C238.183594,397.143127 238.426758,395.714600 238.693924,394.145081 
	C240.143097,394.145081 241.440125,394.145081 243.470245,394.145081 
	C243.128677,396.820251 243.678726,400.686401 242.294693,401.589996 
	C239.698074,403.285217 235.955582,403.853485 232.744339,403.705322 
	C231.213104,403.634644 228.662140,400.928589 228.544846,399.276276 
	C228.063660,392.498108 228.007751,385.644653 228.444214,378.860657 
	C228.796555,373.384155 233.385330,374.062225 237.202377,374.041016 
	C240.930939,374.020355 243.277405,375.505676 243.277618,379.573456 
	C243.277679,380.886902 243.277649,382.200378 243.277649,383.803619 
	C241.611877,383.803619 240.217758,383.803619 239.586884,383.803619 
	C238.278458,381.942993 237.271179,380.510620 235.813263,379.084229 
z"/>
<path fill="#F4F4F4" opacity="1.000000" stroke="none" 
	d="
M267.963806,358.616882 
	C269.326782,359.439575 270.607697,359.804138 272.100922,360.229095 
	C272.505981,358.169769 272.786438,356.744049 273.099182,355.154175 
	C274.417114,355.154175 275.710358,355.154175 277.624420,355.154175 
	C277.624420,356.838165 277.770416,358.449249 277.598022,360.025513 
	C276.995911,365.530884 272.857574,365.002808 268.973969,365.049896 
	C265.275726,365.094727 262.728058,363.898621 262.691193,359.772430 
	C262.633240,353.287384 262.445099,346.787781 262.829773,340.325134 
	C262.931763,338.611237 264.787659,335.745300 266.077637,335.604706 
	C269.355713,335.247314 273.073395,335.473785 275.990936,336.819641 
	C277.305298,337.425903 277.422729,341.255341 277.440247,343.627075 
	C277.444946,344.263580 275.088959,344.917542 273.427551,345.761017 
	C272.314087,342.898865 273.257446,338.568573 267.881805,340.662140 
	C267.881805,346.295746 267.881805,352.227234 267.963806,358.616882 
z"/>
<path fill="#F3F3F3" opacity="1.000000" stroke="none" 
	d="
M398.890411,335.104462 
	C399.466095,336.065979 399.924652,337.042694 399.741730,337.879181 
	C397.793762,346.786743 395.744049,355.671997 393.738129,364.493774 
	C389.783264,365.999329 388.287048,364.650269 387.563477,360.757568 
	C386.017792,352.442047 383.961182,344.221497 382.006073,335.480072 
	C383.607025,335.285950 384.977783,335.119751 386.936432,334.882263 
	C388.186707,340.985229 389.390045,346.859131 390.593384,352.733032 
	C390.904480,352.768646 391.215576,352.804260 391.526672,352.839874 
	C392.553497,347.957306 393.711334,343.097137 394.551910,338.182709 
	C394.971802,335.727722 395.981598,334.615509 398.890411,335.104462 
z"/>
<path fill="#F5F5F5" opacity="1.000000" stroke="none" 
	d="
M297.627380,379.393433 
	C296.923279,377.662292 296.395325,376.285400 295.651306,374.344940 
	C304.187469,372.833008 301.573120,381.653412 305.235565,383.982147 
	C308.769623,381.309235 306.126373,372.948578 314.695557,374.318298 
	C311.342712,384.068390 305.306519,392.849548 308.430878,403.775665 
	C305.943756,403.775665 304.521545,403.775665 304.554474,403.775665 
	C302.201965,395.402588 300.002747,387.575165 297.627380,379.393433 
z"/>
<path fill="#F1F1F1" opacity="1.000000" stroke="none" 
	d="
M282.419769,380.346924 
	C280.989532,379.471405 279.632233,379.049622 277.927002,378.519714 
	C277.927002,377.399780 277.927002,375.990295 277.927002,374.307068 
	C282.629150,374.307068 287.202515,374.307068 291.968048,374.307068 
	C293.992706,378.282776 291.976135,379.457123 287.738892,379.126984 
	C287.738892,387.503662 287.738892,395.566711 287.738892,403.819824 
	C285.811951,403.819824 284.376099,403.819824 282.492706,403.819824 
	C282.492706,396.021729 282.492706,388.411163 282.419769,380.346924 
z"/>
<path fill="#F1F1F1" opacity="1.000000" stroke="none" 
	d="
M364.861267,340.143250 
	C364.194885,346.282166 363.956726,352.359192 363.762695,358.437653 
	C363.699860,360.405762 363.752838,362.377563 363.752838,364.690063 
	C362.029694,364.825195 360.636261,364.934479 358.692566,365.086914 
	C358.692566,356.739716 358.692566,348.708252 358.692566,340.450562 
	C356.815674,340.192047 355.420990,339.999939 353.935669,339.795349 
	C353.935669,338.174408 353.935669,336.765961 353.935669,335.234680 
	C358.815765,335.234680 363.395264,335.234680 368.065826,335.234680 
	C369.056580,338.115112 369.386108,340.363464 364.861267,340.143250 
z"/>
<path fill="#F0F0F0" opacity="1.000000" stroke="none" 
	d="
M349.485474,359.714905 
	C349.485413,361.654022 349.485413,363.126801 349.485413,364.814758 
	C347.637573,364.814758 346.200226,364.814758 344.493073,364.814758 
	C344.493073,354.948853 344.493073,345.237213 344.493073,335.281372 
	C346.166107,335.281372 347.587708,335.281372 349.485504,335.281372 
	C349.485504,343.375244 349.485504,351.311920 349.485474,359.714905 
z"/>
<path fill="#F0F0F0" opacity="1.000000" stroke="none" 
	d="
M253.485504,381.177734 
	C253.485474,388.935150 253.485474,396.214417 253.485474,403.759521 
	C251.700409,403.759521 250.283768,403.759521 248.544434,403.759521 
	C248.544434,394.022858 248.544434,384.330902 248.544434,374.284424 
	C250.066818,374.211731 251.471359,374.144653 253.485535,374.048492 
	C253.485535,376.490509 253.485535,378.595032 253.485504,381.177734 
z"/>
<path fill="#EA7145" opacity="1.000000" stroke="none" 
	d="
M260.482605,439.577087 
	C261.150299,441.262695 261.665894,442.617859 262.181519,443.972992 
	C262.455078,443.945038 262.728638,443.917053 263.002197,443.889069 
	C263.002197,442.186340 262.847656,440.462891 263.072144,438.790314 
	C263.173431,438.035858 264.029968,437.382782 264.543884,436.683746 
	C265.082947,437.356201 266.072693,438.017609 266.089539,438.702881 
	C266.219421,443.999359 266.161102,449.300446 266.161102,454.600128 
	C265.652832,454.861359 265.144562,455.122620 264.636292,455.383881 
	C263.146942,453.159637 261.657562,450.935394 260.522156,449.239716 
	C259.713013,450.939362 258.762146,452.936737 257.811279,454.934082 
	C257.279846,452.731598 256.493469,450.553345 256.281494,448.320557 
	C256.015381,445.517639 256.076233,442.658905 256.294250,439.847382 
	C256.378082,438.766022 257.282196,437.748260 257.812531,436.701538 
	C258.651855,437.549927 259.491180,438.398315 260.482605,439.577087 
z"/>
<path fill="#F67647" opacity="1.000000" stroke="none" 
	d="
M293.922363,444.084351 
	C293.922333,441.469666 293.922333,439.331177 293.922333,437.285217 
	C302.369354,435.539612 303.976959,436.921661 303.248566,444.916718 
	C302.959625,448.088165 302.622589,451.255280 302.127625,456.232971 
	C300.363495,453.323853 299.168884,451.353912 297.971252,449.379028 
	C297.773315,449.476471 297.370728,449.539001 297.283478,449.739014 
	C296.540833,451.441742 295.855530,453.169556 295.153076,454.889832 
	C294.742889,453.111633 294.187561,451.351379 293.965332,449.549988 
	C293.763031,447.910004 293.922424,446.225464 293.922363,444.084351 
z"/>
<path fill="#F9F9F9" opacity="1.000000" stroke="none" 
	d="
M147.219635,335.174072 
	C149.588638,334.933197 151.221146,334.841248 151.182068,337.686798 
	C151.059631,346.604523 151.137085,355.524994 151.137085,364.724976 
	C149.421661,364.724976 148.031403,364.724976 146.769867,364.724976 
	C146.769867,354.889862 146.769867,345.078796 147.219635,335.174072 
z"/>
<path fill="#FCFCFC" opacity="1.000000" stroke="none" 
	d="
M372.912354,346.027161 
	C372.912354,342.246552 372.912354,338.961151 372.912354,335.313660 
	C374.611969,335.234589 375.990936,335.170441 377.686584,335.091583 
	C377.686584,345.063019 377.686584,354.740082 377.686584,364.711121 
	C376.256744,364.711121 374.869720,364.711121 372.912354,364.711121 
	C372.912354,358.671173 372.912354,352.596741 372.912354,346.027161 
z"/>
<path fill="#E26E44" opacity="1.000000" stroke="none" 
	d="
M270.891174,454.951294 
	C270.131500,449.175140 269.712158,443.411316 269.620911,437.642365 
	C269.615021,437.268921 272.187195,436.418335 273.467590,436.570099 
	C275.110077,436.764740 277.336243,437.297302 278.125519,438.477203 
	C280.891754,442.612549 278.308594,448.184967 273.577881,449.330872 
	C272.799255,451.262299 272.053406,453.112396 270.891174,454.951294 
z"/>
<path fill="#ED7246" opacity="1.000000" stroke="none" 
	d="
M249.786652,437.554688 
	C251.145691,443.470184 252.340530,449.044403 253.535370,454.618652 
	C253.152817,454.840851 252.770264,455.063049 252.387726,455.285248 
	C250.873260,454.015808 249.322708,451.703613 247.853958,451.754486 
	C246.207932,451.811462 244.635956,454.006927 241.904938,454.697083 
	C243.093842,449.150940 244.165146,443.573151 245.636490,438.102966 
	C245.800491,437.493195 248.238846,437.495148 249.786652,437.554688 
z"/>
<path fill="#F17446" opacity="1.000000" stroke="none" 
	d="
M285.281799,451.227386 
	C286.274963,450.549530 287.655548,449.529480 287.740265,448.411194 
	C288.025208,444.651917 287.848602,440.857666 287.848602,437.076782 
	C288.252258,436.887177 288.655945,436.697601 289.059601,436.507996 
	C289.680542,437.262146 290.805115,437.994843 290.838257,438.773987 
	C291.014740,442.921844 290.974854,447.082367 290.896637,451.236389 
	C290.839630,454.264740 288.917175,455.048859 286.201843,455.061340 
	C283.407379,455.074158 281.689240,454.116608 281.659760,451.115479 
	C281.620605,447.126709 281.521515,443.133636 281.681519,439.151825 
	C281.714661,438.328094 282.771698,437.545502 283.356842,436.743958 
	C283.871582,437.622803 284.780182,438.478851 284.832520,439.384430 
	C285.052765,443.194977 285.017334,447.020264 285.281799,451.227386 
z"/>
<path fill="#F67647" opacity="1.000000" stroke="none" 
	d="
M234.995087,438.112244 
	C236.047180,437.410370 236.957977,437.024933 237.868774,436.639496 
	C234.169846,443.026428 235.239822,448.668274 239.235764,454.145020 
	C236.436264,454.557251 236.436264,454.557251 232.709244,449.308868 
	C232.083130,451.331818 231.485107,453.264038 230.887070,455.196259 
	C230.242065,455.086853 229.597061,454.977448 228.952057,454.868042 
	C228.952057,449.351715 228.910858,443.834625 229.016922,438.320374 
	C229.027313,437.779694 229.942734,437.256409 230.438080,436.725037 
	C230.954620,437.228760 231.782700,437.659058 231.922379,438.251617 
	C232.206573,439.457214 232.119217,440.750427 232.248810,443.228638 
	C233.490799,440.940125 234.172302,439.684387 234.995087,438.112244 
z"/>
<path fill="#F17446" opacity="1.000000" stroke="none" 
	d="
M214.930893,454.848206 
	C214.247574,453.337555 213.910400,451.906250 213.794937,450.457275 
	C213.440628,446.010223 215.366898,441.065155 209.371796,437.041412 
	C213.809921,437.041412 216.739304,437.041412 220.923355,437.041412 
	C215.137024,441.497894 217.477737,446.916077 216.886383,451.792755 
	C216.754547,452.879944 215.900162,453.879517 214.930893,454.848206 
z"/>
<path fill="#F17446" opacity="1.000000" stroke="none" 
	d="
M201.514801,437.339874 
	C201.805542,442.585114 201.926117,447.521942 201.817169,452.453705 
	C201.798798,453.285858 200.790665,454.096161 200.239838,454.916534 
	C199.695770,454.097595 198.711304,453.294464 198.681259,452.457062 
	C198.522049,448.018616 198.480042,443.564880 198.719879,439.133881 
	C198.760208,438.388733 200.378326,437.728973 201.514801,437.339874 
z"/>
<path fill="#FE7847" opacity="1.000000" stroke="none" 
	d="
M207.931412,453.529724 
	C206.915634,453.720734 205.117569,453.483337 205.108368,453.189819 
	C204.939499,447.805237 204.984894,442.413940 204.984894,436.709259 
	C208.099457,438.206482 208.099457,438.206482 207.931412,453.529724 
z"/>
<path fill="#FF7A4A" opacity="1.000000" stroke="none" 
	d="
M280.014984,184.006195 
	C271.516785,185.923523 262.766693,186.419678 255.625381,190.066376 
	C242.126938,196.959351 227.963379,199.051071 213.291611,200.024567 
	C197.485321,201.073318 183.582932,206.136505 174.534149,220.099411 
	C172.226425,223.660385 170.594879,227.798843 169.387405,231.888885 
	C168.444641,235.082260 166.818680,236.979935 163.887039,235.742966 
	C162.469727,235.144958 161.130493,232.148849 161.299088,230.386154 
	C162.051056,222.524963 162.269394,222.508316 155.340988,219.212479 
	C144.743683,214.171356 137.089691,206.505402 133.878204,194.986969 
	C133.052567,192.025696 131.416748,190.501511 128.434219,190.065536 
	C127.147629,189.877472 125.483521,189.590424 124.780632,188.714569 
	C123.705505,187.374847 122.420486,185.152298 122.879791,183.922943 
	C123.355766,182.649002 126.067596,181.101486 127.341919,181.434143 
	C131.917480,182.628586 135.306885,182.237061 138.095154,177.848404 
	C138.820541,176.706680 141.800156,176.997162 143.744385,176.629837 
	C144.095840,178.554016 145.202408,180.740082 144.644440,182.348846 
	C143.413528,185.897949 139.793793,188.333466 141.744873,193.206497 
	C144.466644,200.004364 148.673813,205.260040 154.623566,209.261169 
	C156.133560,210.276627 157.839035,211.017609 159.497406,211.793396 
	C166.567123,215.100632 167.214127,214.880829 172.496445,209.122391 
	C182.471298,198.248459 195.178970,193.206375 209.635910,192.007294 
	C210.777740,191.912582 211.918671,191.806747 214.218353,191.603912 
	C203.517471,172.690125 202.215271,153.531952 210.669693,134.769699 
	C208.202194,132.064087 205.789642,130.090149 204.332520,127.564926 
	C203.481216,126.089638 204.156387,123.733551 204.144836,121.773727 
	C205.984985,121.894913 208.520782,121.284615 209.547577,122.261086 
	C214.594620,127.060699 219.857483,129.248871 226.768600,126.393616 
	C227.982025,125.892303 230.071167,127.510712 231.755890,128.150177 
	C231.007431,129.991699 230.622406,132.145599 229.394073,133.574646 
	C228.433197,134.692535 226.399292,135.496643 224.889633,135.425934 
	C219.206406,135.159821 217.693268,138.968506 216.258881,143.275406 
	C211.097305,158.773575 212.939285,173.431717 221.612381,187.160736 
	C222.539536,188.628387 225.179291,190.118225 226.757248,189.873566 
	C232.611496,188.965897 238.849564,188.342834 244.042755,185.784515 
	C258.087097,178.865799 272.429108,174.715622 288.261932,175.939285 
	C298.602539,176.738464 308.972839,176.356720 318.315887,170.834900 
	C320.879242,169.319901 323.095215,167.170547 325.741821,165.860077 
	C327.382660,165.047638 329.534180,165.266617 331.456482,165.022644 
	C331.565491,167.113037 332.577698,169.936554 331.598114,171.143341 
	C329.467316,173.768372 326.548737,175.983795 323.548798,177.632889 
	C311.980469,183.992004 299.638458,186.474518 286.473572,184.228928 
	C284.522980,183.896210 282.486267,184.068634 280.014984,184.006195 
z"/>
<path fill="#FF7A4A" opacity="1.000000" stroke="none" 
	d="
M320.836365,200.959625 
	C320.385284,199.307007 320.128357,197.994095 319.706970,196.736298 
	C318.687927,193.694687 319.406311,191.202087 322.582092,190.413025 
	C325.955627,189.574875 327.469910,191.970001 327.878296,194.894867 
	C328.823578,201.665237 332.942566,205.516312 339.135529,207.499207 
	C340.375763,207.896317 341.969391,207.482086 343.027435,208.090225 
	C344.806458,209.112717 346.286743,210.655014 347.892731,211.978638 
	C346.149017,213.328278 344.478394,215.668228 342.645050,215.803513 
	C339.632751,216.025818 336.535980,214.598511 333.433258,214.302277 
	C331.751129,214.141678 329.734680,214.455688 328.299713,215.293335 
	C323.728699,217.961655 319.519714,221.281601 314.846039,223.729660 
	C312.445557,224.987030 310.931976,225.772812 311.796600,228.773163 
	C312.140167,229.965256 312.122681,231.714752 311.466095,232.640839 
	C310.337616,234.232574 308.578918,235.377533 307.084717,236.709991 
	C305.761536,235.156845 303.203278,233.494736 303.328979,232.069397 
	C303.873474,225.896484 300.356018,225.879868 295.913788,225.979843 
	C288.482178,226.147079 280.722443,224.581573 273.696045,226.250839 
	C266.820831,227.884171 260.615662,232.520767 254.309799,236.173065 
	C253.349823,236.729065 253.135345,239.085510 253.105103,240.619629 
	C253.052597,243.282471 252.971481,245.889725 249.763580,246.438065 
	C246.474548,247.000275 245.952011,244.375626 244.839096,242.012741 
	C244.030746,240.296478 242.042664,238.310593 240.298935,237.993393 
	C228.538269,235.854156 217.120758,235.463348 207.826767,245.296631 
	C206.626038,246.567032 203.183136,245.718231 200.778854,245.851074 
	C201.283768,243.648254 201.084183,240.754547 202.432922,239.379227 
	C205.754440,235.992279 209.787445,233.303070 212.276733,230.076981 
	C212.917892,227.234634 212.643005,222.952820 214.386765,221.843124 
	C218.277100,219.367386 219.712524,223.833115 221.840057,226.233093 
	C222.755936,227.266281 224.604706,227.755753 226.097946,227.940659 
	C230.542816,228.490997 235.143356,228.254730 239.456970,229.278458 
	C245.133774,230.625687 249.967285,229.180527 254.716965,226.500641 
	C258.484070,224.375107 262.090607,221.934448 265.969635,220.047287 
	C269.137390,218.506149 269.642303,216.424362 268.241516,213.593674 
	C266.761841,210.603592 266.696808,207.815186 270.146149,206.579910 
	C273.787567,205.275864 275.635986,208.264282 276.018433,210.999710 
	C276.800201,216.590805 280.049255,217.251144 284.771362,217.069092 
	C292.524384,216.770172 300.316528,217.309525 308.052917,216.843353 
	C311.049835,216.662750 314.072479,214.961609 316.852448,213.510635 
	C323.832306,209.867599 324.379089,207.966721 320.836365,200.959625 
z"/>
<path fill="#FF7A49" opacity="1.000000" stroke="none" 
	d="
M251.296906,151.159317 
	C260.573761,145.907898 261.263794,143.410049 258.235931,132.893738 
	C256.084869,125.422707 253.790695,117.779488 253.340714,110.108688 
	C253.050980,105.169411 255.664948,99.906273 257.684387,95.084312 
	C258.245789,93.743729 261.328278,93.458946 263.254150,92.689804 
	C263.813629,94.675163 265.470764,97.284576 264.754395,98.544556 
	C260.112946,106.708374 261.266754,114.839005 263.897186,123.132713 
	C266.300568,130.710571 269.640625,138.132629 267.290955,146.461227 
	C267.065765,147.259460 268.297913,148.673126 269.138184,149.518051 
	C270.293762,150.680069 272.301208,151.318542 272.880890,152.645584 
	C273.563721,154.208786 273.829742,156.858398 272.941193,157.941376 
	C272.105316,158.960159 268.943756,159.399841 267.826202,158.623978 
	C263.438232,155.577698 259.517670,155.210419 254.896545,158.199341 
	C253.701157,158.972519 251.158401,157.662552 249.234558,157.309479 
	C249.831375,155.339966 250.428207,153.370453 251.296906,151.159317 
z"/>
<path fill="#FF7A4A" opacity="1.000000" stroke="none" 
	d="
M167.965485,134.324051 
	C167.425705,144.151627 169.845001,152.879852 173.641357,161.336258 
	C174.802307,163.922287 176.052017,165.271576 179.323761,164.305527 
	C181.393692,163.694366 184.188126,163.885208 186.075424,164.852386 
	C187.476395,165.570358 188.657104,168.158875 188.553177,169.828140 
	C188.491608,170.817154 185.696854,172.474762 184.213043,172.390366 
	C178.002289,172.037170 173.557129,174.266342 171.024765,179.983978 
	C169.744659,182.874268 167.973145,185.180740 164.597977,183.459717 
	C161.534073,181.897415 161.690567,178.440948 163.482056,176.556732 
	C169.360626,170.373901 165.633743,164.866943 163.646500,158.636932 
	C161.347946,151.431046 160.519150,143.754242 159.101196,136.272629 
	C158.949905,135.474380 158.833588,134.443283 159.202148,133.813431 
	C160.521118,131.559341 161.845215,127.809212 163.551956,127.587669 
	C167.305832,127.100395 168.056961,130.602127 167.965485,134.324051 
z"/>
<path fill="#FF7A4A" opacity="1.000000" stroke="none" 
	d="
M305.106598,145.769958 
	C305.846924,149.614227 306.922302,153.000763 307.116730,156.437149 
	C307.214996,158.173508 305.719116,160.000076 304.944031,161.785873 
	C303.112122,160.812897 300.220978,160.268494 299.625031,158.795471 
	C296.430481,150.899643 296.328644,142.678360 298.032745,134.322311 
	C298.366302,132.686646 297.244385,130.616806 296.425842,128.925247 
	C295.721191,127.469093 293.843842,126.352257 293.656464,124.930931 
	C293.414520,123.096153 294.338440,121.107635 294.760284,119.185318 
	C296.616669,119.639832 299.192566,119.481308 300.197723,120.661072 
	C303.531097,124.573570 307.217529,125.596321 312.189667,124.620041 
	C313.751465,124.313385 315.792755,126.448959 317.614594,127.466713 
	C316.509766,129.078262 315.409485,130.693008 314.290497,132.294647 
	C314.210144,132.409653 313.994995,132.434662 313.839020,132.492020 
	C305.655579,135.501099 305.182953,136.193573 305.106598,145.769958 
z"/>
<path fill="#FF7A49" opacity="1.000000" stroke="none" 
	d="
M349.899323,136.946671 
	C367.178864,148.244934 369.795349,165.047821 365.059601,179.264450 
	C364.536224,180.835480 364.128632,182.709412 363.018555,183.752197 
	C361.698608,184.992081 359.677216,185.485184 357.959717,186.301865 
	C357.240540,184.349228 356.038269,182.418106 355.950073,180.437363 
	C355.875153,178.755554 357.212219,177.052078 357.707520,175.296982 
	C361.118469,163.209229 357.485779,153.338760 347.090912,144.883530 
	C345.521027,143.606567 345.169952,140.831161 344.255096,138.748886 
	C346.027740,138.092407 347.800415,137.435944 349.899323,136.946671 
z"/>
<path fill="#FF7A49" opacity="1.000000" stroke="none" 
	d="
M204.379333,91.994095 
	C209.287872,92.291595 213.829239,92.200844 218.148911,93.135162 
	C219.631073,93.455750 220.558655,96.340271 221.739594,98.053444 
	C219.842728,98.970474 217.716568,100.973793 216.085938,100.629578 
	C204.861603,98.260155 195.740982,101.343925 188.403427,110.064087 
	C186.481598,112.348061 183.964066,114.590927 181.225555,112.194214 
	C178.299713,109.633545 180.321320,106.656784 182.304169,104.299240 
	C187.980530,97.550217 195.120956,93.294975 204.379333,91.994095 
z"/>
<path fill="#FF7A4A" opacity="1.000000" stroke="none" 
	d="
M291.661560,97.841331 
	C290.215302,95.961479 288.218811,93.995132 288.471649,92.381203 
	C288.676239,91.075462 291.571655,89.300209 293.303131,89.266754 
	C306.344177,89.014709 317.326965,93.729721 325.278351,104.259201 
	C326.379669,105.717560 326.477264,109.375145 325.409546,110.731506 
	C323.154022,113.596779 320.636780,111.525871 318.848572,109.369659 
	C311.871552,100.956917 302.971405,97.136467 291.661560,97.841331 
z"/>
<path fill="#FF7A4A" opacity="1.000000" stroke="none" 
	d="
M363.733795,241.719025 
	C359.764771,244.416153 356.153625,247.046738 352.292419,249.236328 
	C349.755280,250.675095 346.533630,250.589432 345.694916,247.438217 
	C345.283600,245.892899 347.096130,242.578888 348.698730,241.872543 
	C356.814087,238.295731 361.670898,232.374268 363.572388,223.831558 
	C364.225189,220.898712 366.145599,218.382309 368.988037,219.634827 
	C370.550262,220.323212 372.130829,224.295761 371.513367,225.989166 
	C369.558716,231.350082 366.572693,236.334930 363.733795,241.719025 
z"/>
<path fill="#4A4A4A" opacity="1.000000" stroke="none" 
	d="
M90.592896,347.687256 
	C85.242096,346.589020 88.969856,342.901978 87.095985,339.564117 
	C89.630188,340.270721 92.232277,340.708832 92.218643,341.038879 
	C92.127144,343.254333 91.479538,345.446838 90.592896,347.687256 
z"/>
<path fill="#383838" opacity="1.000000" stroke="none" 
	d="
M91.463531,359.864929 
	C84.573997,360.256287 89.370781,355.373138 87.632256,353.383118 
	C93.008781,352.223297 93.713890,353.397369 91.463531,359.864929 
z"/>
<path fill="#383838" opacity="1.000000" stroke="none" 
	d="
M112.795059,341.451141 
	C112.918915,343.193420 112.814697,344.516907 112.965233,345.810791 
	C113.426682,349.777039 111.610619,350.683105 107.971664,349.669250 
	C107.971664,346.634430 107.971664,343.724365 107.971664,339.980011 
	C109.612732,340.341827 111.148109,340.680328 112.795059,341.451141 
z"/>
<path fill="#383838" opacity="1.000000" stroke="none" 
	d="
M292.808899,353.813660 
	C292.639008,357.183746 293.946655,361.274292 288.017151,359.722778 
	C288.017151,353.413696 288.017151,347.034607 288.017151,340.498199 
	C291.336212,339.352142 293.044495,340.055176 292.841064,343.894470 
	C292.674683,347.034180 292.808319,350.189789 292.808899,353.813660 
z"/>
<path fill="#383838" opacity="1.000000" stroke="none" 
	d="
M242.080750,356.732117 
	C240.961823,358.395233 239.844299,359.586884 238.726776,360.778534 
	C238.293320,360.468842 237.859848,360.159149 237.426392,359.849457 
	C237.426392,353.468811 237.426392,347.088165 237.426392,340.697571 
	C241.940186,339.813843 241.997467,339.812866 242.066696,343.832001 
	C242.138031,347.973755 242.082291,352.117706 242.080750,356.732117 
z"/>
<path fill="#4A4A4A" opacity="1.000000" stroke="none" 
	d="
M213.194901,389.005127 
	C213.195404,386.704437 213.320404,384.872681 213.170181,383.063812 
	C212.866577,379.407928 214.390320,378.229187 218.193375,379.360138 
	C218.193375,385.711334 218.193375,392.080841 218.193375,398.585358 
	C214.509323,400.021790 212.899780,398.888672 213.174316,394.947113 
	C213.300552,393.134552 213.195206,391.305817 213.194901,389.005127 
z"/>
<path fill="#4A4A4A" opacity="1.000000" stroke="none" 
	d="
M133.825485,351.237457 
	C134.603287,355.033142 132.889313,355.295685 129.750763,354.338470 
	C130.269089,351.070068 130.789413,347.789124 131.309738,344.508179 
	C131.619614,344.469391 131.929504,344.430573 132.239395,344.391785 
	C132.743073,346.536072 133.246750,348.680328 133.825485,351.237457 
z"/>
<path fill="#4A4A4A" opacity="1.000000" stroke="none" 
	d="
M195.782944,347.967407 
	C195.992645,346.589020 196.132721,345.607544 196.272797,344.626099 
	C196.591537,344.561646 196.910294,344.497192 197.229034,344.432739 
	C197.921463,347.567322 198.613907,350.701874 199.449631,354.485138 
	C197.683533,354.580658 196.389816,354.650635 194.586945,354.748169 
	C195.030380,352.234985 195.371841,350.299652 195.782944,347.967407 
z"/>
</svg>